{
    "asset" : {
        "generator" : "Khronos glTF Blender I/O v1.4.40",
        "version" : "2.0"
    },
    "scene" : 0,
    "scenes" : [
        {
            "name" : "Scene",
            "nodes" : [
                0,
                1,
                2,
                3,
                4,
                5,
                6,
                7,
                8
            ]
        }
    ],
    "nodes" : [
        {
            "mesh" : 0,
            "name" : "Cube.005",
            "rotation" : [
                0,
                0,
                -1,
                4.5964805312631585e-14
            ],
            "translation" : [
                0.8876304030418396,
                4.398822784423828e-05,
                -2.3667478561401367
            ]
        },
        {
            "mesh" : 1,
            "name" : "Plane.002",
            "rotation" : [
                0,
                -0.7071072459220886,
                0,
                -0.707106351852417
            ],
            "translation" : [
                0.5844612717628479,
                1.9410814046859741,
                -2.660526990890503
            ]
        },
        {
            "mesh" : 2,
            "name" : "Plane.003",
            "rotation" : [
                0,
                -0.7071072459220886,
                0,
                -0.707106351852417
            ],
            "translation" : [
                0.5844612717628479,
                1.9410814046859741,
                -2.0727007389068604
            ]
        },
        {
            "mesh" : 3,
            "name" : "Plane.004",
            "rotation" : [
                0,
                -0.7071062326431274,
                0,
                0.7071073651313782
            ],
            "translation" : [
                1.3823344707489014,
                1.9410814046859741,
                -2.072700262069702
            ]
        },
        {
            "mesh" : 4,
            "name" : "Plane.005",
            "rotation" : [
                0,
                -0.7071062326431274,
                0,
                0.7071073651313782
            ],
            "translation" : [
                1.3823344707489014,
                1.9410814046859741,
                -2.6605265140533447
            ]
        },
        {
            "name" : "Light.001",
            "rotation" : [
                0.16907575726509094,
                0.7558803558349609,
                -0.27217137813568115,
                0.570947527885437
            ],
            "translation" : [
                4.076245307922363,
                5.903861999511719,
                -1.0054539442062378
            ]
        },
        {
            "name" : "Camera.001",
            "rotation" : [
                0.483536034822464,
                0.33687159419059753,
                -0.20870360732078552,
                0.7804827094078064
            ],
            "translation" : [
                7.358891487121582,
                4.958309173583984,
                6.925790786743164
            ]
        },
        {
            "name" : "Light",
            "rotation" : [
                0.16907575726509094,
                0.7558803558349609,
                -0.27217137813568115,
                0.570947527885437
            ],
            "translation" : [
                4.076245307922363,
                5.903861999511719,
                -1.0054539442062378
            ]
        },
        {
            "name" : "Camera",
            "rotation" : [
                0.483536034822464,
                0.33687159419059753,
                -0.20870360732078552,
                0.7804827094078064
            ],
            "translation" : [
                7.358891487121582,
                4.958309173583984,
                6.925790786743164
            ]
        }
    ],
    "materials" : [
        {
            "doubleSided" : true,
            "name" : "Material.001",
            "pbrMetallicRoughness" : {
                "baseColorFactor" : [
                    0.015995405614376068,
                    0.015995405614376068,
                    0.015995405614376068,
                    1
                ],
                "metallicFactor" : 0,
                "roughnessFactor" : 0.5
            }
        }
    ],
    "meshes" : [
        {
            "name" : "Cube.039",
            "primitives" : [
                {
                    "attributes" : {
                        "POSITION" : 0,
                        "NORMAL" : 1,
                        "TEXCOORD_0" : 2
                    },
                    "indices" : 3,
                    "material" : 0
                }
            ]
        },
        {
            "name" : "Plane.002",
            "primitives" : [
                {
                    "attributes" : {
                        "POSITION" : 4,
                        "NORMAL" : 5,
                        "TEXCOORD_0" : 6
                    },
                    "indices" : 7,
                    "material" : 0
                }
            ]
        },
        {
            "name" : "Plane.003",
            "primitives" : [
                {
                    "attributes" : {
                        "POSITION" : 8,
                        "NORMAL" : 9,
                        "TEXCOORD_0" : 10
                    },
                    "indices" : 11,
                    "material" : 0
                }
            ]
        },
        {
            "name" : "Plane.006",
            "primitives" : [
                {
                    "attributes" : {
                        "POSITION" : 12,
                        "NORMAL" : 13,
                        "TEXCOORD_0" : 14
                    },
                    "indices" : 15,
                    "material" : 0
                }
            ]
        },
        {
            "name" : "Plane.007",
            "primitives" : [
                {
                    "attributes" : {
                        "POSITION" : 16,
                        "NORMAL" : 17,
                        "TEXCOORD_0" : 18
                    },
                    "indices" : 19,
                    "material" : 0
                }
            ]
        }
    ],
    "accessors" : [
        {
            "bufferView" : 0,
            "componentType" : 5126,
            "count" : 2173,
            "max" : [
                0.5000006556510925,
                2.384185791015625e-07,
                0.3002670109272003
            ],
            "min" : [
                -0.5000007152557373,
                -1.9999996423721313,
                -0.3000008165836334
            ],
            "type" : "VEC3"
        },
        {
            "bufferView" : 1,
            "componentType" : 5126,
            "count" : 2173,
            "type" : "VEC3"
        },
        {
            "bufferView" : 2,
            "componentType" : 5126,
            "count" : 2173,
            "type" : "VEC2"
        },
        {
            "bufferView" : 3,
            "componentType" : 5123,
            "count" : 2598,
            "type" : "SCALAR"
        },
        {
            "bufferView" : 4,
            "componentType" : 5126,
            "count" : 195,
            "max" : [
                0.00595443369820714,
                0.0016936371102929115,
                -0.18706151843070984
            ],
            "min" : [
                -0.2941628694534302,
                -1.8934866189956665,
                -0.1962074339389801
            ],
            "type" : "VEC3"
        },
        {
            "bufferView" : 5,
            "componentType" : 5126,
            "count" : 195,
            "type" : "VEC3"
        },
        {
            "bufferView" : 6,
            "componentType" : 5126,
            "count" : 195,
            "type" : "VEC2"
        },
        {
            "bufferView" : 7,
            "componentType" : 5123,
            "count" : 228,
            "type" : "SCALAR"
        },
        {
            "bufferView" : 8,
            "componentType" : 5126,
            "count" : 199,
            "max" : [
                0.2941633462905884,
                0.0016936371102929115,
                -0.18706151843070984
            ],
            "min" : [
                -0.005953939165920019,
                -1.8934866189956665,
                -0.1962074339389801
            ],
            "type" : "VEC3"
        },
        {
            "bufferView" : 9,
            "componentType" : 5126,
            "count" : 199,
            "type" : "VEC3"
        },
        {
            "bufferView" : 10,
            "componentType" : 5126,
            "count" : 199,
            "type" : "VEC2"
        },
        {
            "bufferView" : 11,
            "componentType" : 5123,
            "count" : 228,
            "type" : "SCALAR"
        },
        {
            "bufferView" : 12,
            "componentType" : 5126,
            "count" : 200,
            "max" : [
                0.0059541864320635796,
                0.0016936371102929115,
                0.004473655018955469
            ],
            "min" : [
                -0.2941631078720093,
                -1.8934866189956665,
                -0.0046722665429115295
            ],
            "type" : "VEC3"
        },
        {
            "bufferView" : 13,
            "componentType" : 5126,
            "count" : 200,
            "type" : "VEC3"
        },
        {
            "bufferView" : 14,
            "componentType" : 5126,
            "count" : 200,
            "type" : "VEC2"
        },
        {
            "bufferView" : 15,
            "componentType" : 5123,
            "count" : 228,
            "type" : "SCALAR"
        },
        {
            "bufferView" : 16,
            "componentType" : 5126,
            "count" : 196,
            "max" : [
                0.2941631078720093,
                0.0016936371102929115,
                0.004473655018955469
            ],
            "min" : [
                -0.0059541864320635796,
                -1.8934866189956665,
                -0.0046722665429115295
            ],
            "type" : "VEC3"
        },
        {
            "bufferView" : 17,
            "componentType" : 5126,
            "count" : 196,
            "type" : "VEC3"
        },
        {
            "bufferView" : 18,
            "componentType" : 5126,
            "count" : 196,
            "type" : "VEC2"
        },
        {
            "bufferView" : 19,
            "componentType" : 5123,
            "count" : 228,
            "type" : "SCALAR"
        }
    ],
    "bufferViews" : [
        {
            "buffer" : 0,
            "byteLength" : 26076,
            "byteOffset" : 0
        },
        {
            "buffer" : 0,
            "byteLength" : 26076,
            "byteOffset" : 26076
        },
        {
            "buffer" : 0,
            "byteLength" : 17384,
            "byteOffset" : 52152
        },
        {
            "buffer" : 0,
            "byteLength" : 5196,
            "byteOffset" : 69536
        },
        {
            "buffer" : 0,
            "byteLength" : 2340,
            "byteOffset" : 74732
        },
        {
            "buffer" : 0,
            "byteLength" : 2340,
            "byteOffset" : 77072
        },
        {
            "buffer" : 0,
            "byteLength" : 1560,
            "byteOffset" : 79412
        },
        {
            "buffer" : 0,
            "byteLength" : 456,
            "byteOffset" : 80972
        },
        {
            "buffer" : 0,
            "byteLength" : 2388,
            "byteOffset" : 81428
        },
        {
            "buffer" : 0,
            "byteLength" : 2388,
            "byteOffset" : 83816
        },
        {
            "buffer" : 0,
            "byteLength" : 1592,
            "byteOffset" : 86204
        },
        {
            "buffer" : 0,
            "byteLength" : 456,
            "byteOffset" : 87796
        },
        {
            "buffer" : 0,
            "byteLength" : 2400,
            "byteOffset" : 88252
        },
        {
            "buffer" : 0,
            "byteLength" : 2400,
            "byteOffset" : 90652
        },
        {
            "buffer" : 0,
            "byteLength" : 1600,
            "byteOffset" : 93052
        },
        {
            "buffer" : 0,
            "byteLength" : 456,
            "byteOffset" : 94652
        },
        {
            "buffer" : 0,
            "byteLength" : 2352,
            "byteOffset" : 95108
        },
        {
            "buffer" : 0,
            "byteLength" : 2352,
            "byteOffset" : 97460
        },
        {
            "buffer" : 0,
            "byteLength" : 1568,
            "byteOffset" : 99812
        },
        {
            "buffer" : 0,
            "byteLength" : 456,
            "byteOffset" : 101380
        }
    ],
    "buffers" : [
        {
            "byteLength" : 101836,
            "uri" : "data:application/octet-stream;base64,"
        }
    ]
}
