{
    "asset" : {
        "generator" : "Khronos glTF Blender I/O v1.4.40",
        "version" : "2.0"
    },
    "scene" : 0,
    "scenes" : [
        {
            "name" : "Scene",
            "nodes" : [
                0,
                1,
                2,
                3,
                4,
                5,
                6,
                7,
                8
            ]
        }
    ],
    "nodes" : [
        {
            "mesh" : 0,
            "name" : "Plane.012"
        },
        {
            "mesh" : 1,
            "name" : "Cube.002",
            "scale" : [
                4.317363262176514,
                1.1005258560180664,
                1.1005258560180664
            ]
        },
        {
            "mesh" : 2,
            "name" : "Cube.041",
            "scale" : [
                4.317363262176514,
                1.1005258560180664,
                1.1005258560180664
            ]
        },
        {
            "mesh" : 3,
            "name" : "Cube.121",
            "rotation" : [
                -0.7071068286895752,
                0,
                -0.7071068286895752,
                2.837897454810445e-07
            ],
            "scale" : [
                0.6239888072013855,
                0.03177698701620102,
                0.6239888072013855
            ]
        },
        {
            "mesh" : 4,
            "name" : "Cube.127",
            "scale" : [
                0.4449999928474426,
                0.9449999928474426,
                0.699999988079071
            ]
        },
        {
            "mesh" : 5,
            "name" : "Plane.002",
            "rotation" : [
                0,
                0,
                -1,
                -1.6292068494294654e-07
            ],
            "scale" : [
                1,
                1,
                6.864100933074951
            ]
        },
        {
            "mesh" : 6,
            "name" : "Cube.155",
            "scale" : [
                0.1190761849284172,
                1,
                0.10472968220710754
            ]
        },
        {
            "name" : "Light",
            "rotation" : [
                0.16907575726509094,
                0.7558803558349609,
                -0.27217137813568115,
                0.570947527885437
            ],
            "translation" : [
                4.076245307922363,
                5.903861999511719,
                -1.0054539442062378
            ]
        },
        {
            "name" : "Camera",
            "rotation" : [
                0.483536034822464,
                0.33687159419059753,
                -0.20870360732078552,
                0.7804827094078064
            ],
            "translation" : [
                7.358891487121582,
                4.958309173583984,
                6.925790786743164
            ]
        }
    ],
    "materials" : [
        {
            "doubleSided" : true,
            "name" : "Material.001",
            "pbrMetallicRoughness" : {
                "baseColorFactor" : [
                    0.006512089632451534,
                    0.019382361322641373,
                    0.019382361322641373,
                    1
                ],
                "metallicFactor" : 0
            }
        },
        {
            "doubleSided" : true,
            "name" : "Material.002",
            "pbrMetallicRoughness" : {
                "baseColorFactor" : [
                    0.036875300109386444,
                    0.06372199207544327,
                    0.06372199207544327,
                    1
                ],
                "metallicFactor" : 0
            }
        },
        {
            "doubleSided" : true,
            "name" : "Material.003",
            "pbrMetallicRoughness" : {
                "baseColorFactor" : [
                    0.33716365694999695,
                    0.3813260793685913,
                    0.4072403609752655,
                    1
                ],
                "metallicFactor" : 0
            }
        },
        {
            "doubleSided" : true,
            "name" : "Material.005",
            "pbrMetallicRoughness" : {
                "baseColorFactor" : [
                    0.020507683977484703,
                    0.04867875203490257,
                    0.04867875203490257,
                    1
                ],
                "metallicFactor" : 0
            }
        }
    ],
    "meshes" : [
        {
            "name" : "Plane.001",
            "primitives" : [
                {
                    "attributes" : {
                        "POSITION" : 0,
                        "NORMAL" : 1,
                        "TEXCOORD_0" : 2
                    },
                    "indices" : 3,
                    "material" : 0
                },
                {
                    "attributes" : {
                        "POSITION" : 4,
                        "NORMAL" : 5,
                        "TEXCOORD_0" : 6
                    },
                    "indices" : 7,
                    "material" : 1
                },
                {
                    "attributes" : {
                        "POSITION" : 8,
                        "NORMAL" : 9,
                        "TEXCOORD_0" : 10
                    },
                    "indices" : 11,
                    "material" : 2
                },
                {
                    "attributes" : {
                        "POSITION" : 12,
                        "NORMAL" : 13,
                        "TEXCOORD_0" : 14
                    },
                    "indices" : 15,
                    "material" : 3
                }
            ]
        },
        {
            "name" : "Cube.001",
            "primitives" : [
                {
                    "attributes" : {
                        "POSITION" : 16,
                        "NORMAL" : 17,
                        "TEXCOORD_0" : 18
                    },
                    "indices" : 19,
                    "material" : 2
                }
            ]
        },
        {
            "name" : "Cube.002",
            "primitives" : [
                {
                    "attributes" : {
                        "POSITION" : 20,
                        "NORMAL" : 21,
                        "TEXCOORD_0" : 22
                    },
                    "indices" : 23,
                    "material" : 2
                }
            ]
        },
        {
            "name" : "Cube.003",
            "primitives" : [
                {
                    "attributes" : {
                        "POSITION" : 24,
                        "NORMAL" : 25,
                        "TEXCOORD_0" : 26
                    },
                    "indices" : 27,
                    "material" : 2
                }
            ]
        },
        {
            "name" : "Cube.005",
            "primitives" : [
                {
                    "attributes" : {
                        "POSITION" : 28,
                        "NORMAL" : 29,
                        "TEXCOORD_0" : 30
                    },
                    "indices" : 31,
                    "material" : 2
                }
            ]
        },
        {
            "name" : "Plane.002",
            "primitives" : [
                {
                    "attributes" : {
                        "POSITION" : 32,
                        "NORMAL" : 33,
                        "TEXCOORD_0" : 34
                    },
                    "indices" : 35,
                    "material" : 2
                }
            ]
        },
        {
            "name" : "Cube.006",
            "primitives" : [
                {
                    "attributes" : {
                        "POSITION" : 36,
                        "NORMAL" : 37,
                        "TEXCOORD_0" : 38
                    },
                    "indices" : 39,
                    "material" : 2
                }
            ]
        }
    ],
    "accessors" : [
        {
            "bufferView" : 0,
            "componentType" : 5126,
            "count" : 75,
            "max" : [
                310.53125,
                -4.356251239776611,
                321.755126953125
            ],
            "min" : [
                -302.52008056640625,
                -4.356253623962402,
                -441.12646484375
            ],
            "type" : "VEC3"
        },
        {
            "bufferView" : 1,
            "componentType" : 5126,
            "count" : 75,
            "type" : "VEC3"
        },
        {
            "bufferView" : 2,
            "componentType" : 5126,
            "count" : 75,
            "type" : "VEC2"
        },
        {
            "bufferView" : 3,
            "componentType" : 5123,
            "count" : 75,
            "type" : "SCALAR"
        },
        {
            "bufferView" : 4,
            "componentType" : 5126,
            "count" : 296,
            "max" : [
                43.307899475097656,
                5.855071067810059,
                13.61639404296875
            ],
            "min" : [
                -23.550037384033203,
                -4.356252670288086,
                -52.31817626953125
            ],
            "type" : "VEC3"
        },
        {
            "bufferView" : 5,
            "componentType" : 5126,
            "count" : 296,
            "type" : "VEC3"
        },
        {
            "bufferView" : 6,
            "componentType" : 5126,
            "count" : 296,
            "type" : "VEC2"
        },
        {
            "bufferView" : 7,
            "componentType" : 5123,
            "count" : 336,
            "type" : "SCALAR"
        },
        {
            "bufferView" : 8,
            "componentType" : 5126,
            "count" : 498,
            "max" : [
                14.55067253112793,
                -1.4853243827819824,
                20.067161560058594
            ],
            "min" : [
                -36.81608200073242,
                -4.356252670288086,
                -35.019264221191406
            ],
            "type" : "VEC3"
        },
        {
            "bufferView" : 9,
            "componentType" : 5126,
            "count" : 498,
            "type" : "VEC3"
        },
        {
            "bufferView" : 10,
            "componentType" : 5126,
            "count" : 498,
            "type" : "VEC2"
        },
        {
            "bufferView" : 11,
            "componentType" : 5123,
            "count" : 618,
            "type" : "SCALAR"
        },
        {
            "bufferView" : 12,
            "componentType" : 5126,
            "count" : 57,
            "max" : [
                45.235252380371094,
                -4.356253623962402,
                57.6494140625
            ],
            "min" : [
                -54.41476821899414,
                -4.463682174682617,
                -85.639404296875
            ],
            "type" : "VEC3"
        },
        {
            "bufferView" : 13,
            "componentType" : 5126,
            "count" : 57,
            "type" : "VEC3"
        },
        {
            "bufferView" : 14,
            "componentType" : 5126,
            "count" : 57,
            "type" : "VEC2"
        },
        {
            "bufferView" : 15,
            "componentType" : 5123,
            "count" : 75,
            "type" : "SCALAR"
        },
        {
            "bufferView" : 16,
            "componentType" : 5126,
            "count" : 8445,
            "max" : [
                2.556365489959717,
                4.0557661056518555,
                1.9386577606201172
            ],
            "min" : [
                0.1063377857208252,
                -3.326312303543091,
                -26.005565643310547
            ],
            "type" : "VEC3"
        },
        {
            "bufferView" : 17,
            "componentType" : 5126,
            "count" : 8445,
            "type" : "VEC3"
        },
        {
            "bufferView" : 18,
            "componentType" : 5126,
            "count" : 8445,
            "type" : "VEC2"
        },
        {
            "bufferView" : 19,
            "componentType" : 5123,
            "count" : 14928,
            "type" : "SCALAR"
        },
        {
            "bufferView" : 20,
            "componentType" : 5126,
            "count" : 2977,
            "max" : [
                2.5563645362854004,
                3.198430299758911,
                1.938654899597168
            ],
            "min" : [
                -0.49953901767730713,
                -3.9583377838134766,
                -26.005569458007812
            ],
            "type" : "VEC3"
        },
        {
            "bufferView" : 21,
            "componentType" : 5126,
            "count" : 2977,
            "type" : "VEC3"
        },
        {
            "bufferView" : 22,
            "componentType" : 5126,
            "count" : 2977,
            "type" : "VEC2"
        },
        {
            "bufferView" : 23,
            "componentType" : 5123,
            "count" : 4245,
            "type" : "SCALAR"
        },
        {
            "bufferView" : 24,
            "componentType" : 5126,
            "count" : 7908,
            "max" : [
                3.673563003540039,
                138.0121307373047,
                19.666278839111328
            ],
            "min" : [
                -46.12025451660156,
                81.59880828857422,
                -3.110457420349121
            ],
            "type" : "VEC3"
        },
        {
            "bufferView" : 25,
            "componentType" : 5126,
            "count" : 7908,
            "type" : "VEC3"
        },
        {
            "bufferView" : 26,
            "componentType" : 5126,
            "count" : 7908,
            "type" : "VEC2"
        },
        {
            "bufferView" : 27,
            "componentType" : 5123,
            "count" : 17145,
            "type" : "SCALAR"
        },
        {
            "bufferView" : 28,
            "componentType" : 5126,
            "count" : 240,
            "max" : [
                20.020627975463867,
                2.232041358947754,
                -24.030975341796875
            ],
            "min" : [
                18.020626068115234,
                0.19246459007263184,
                -40.60242462158203
            ],
            "type" : "VEC3"
        },
        {
            "bufferView" : 29,
            "componentType" : 5126,
            "count" : 240,
            "type" : "VEC3"
        },
        {
            "bufferView" : 30,
            "componentType" : 5126,
            "count" : 240,
            "type" : "VEC2"
        },
        {
            "bufferView" : 31,
            "componentType" : 5123,
            "count" : 360,
            "type" : "SCALAR"
        },
        {
            "bufferView" : 32,
            "componentType" : 5126,
            "count" : 5294,
            "max" : [
                26.386409759521484,
                4.35626220703125,
                1.4796838760375977
            ],
            "min" : [
                14.544401168823242,
                -4.126101016998291,
                -0.6944792866706848
            ],
            "type" : "VEC3"
        },
        {
            "bufferView" : 33,
            "componentType" : 5126,
            "count" : 5294,
            "type" : "VEC3"
        },
        {
            "bufferView" : 34,
            "componentType" : 5126,
            "count" : 5294,
            "type" : "VEC2"
        },
        {
            "bufferView" : 35,
            "componentType" : 5123,
            "count" : 9531,
            "type" : "SCALAR"
        },
        {
            "bufferView" : 36,
            "componentType" : 5126,
            "count" : 28,
            "max" : [
                -300.5415954589844,
                -2.794633388519287,
                200.12738037109375
            ],
            "min" : [
                -305.4769592285156,
                -4.356252670288086,
                191.16024780273438
            ],
            "type" : "VEC3"
        },
        {
            "bufferView" : 37,
            "componentType" : 5126,
            "count" : 28,
            "type" : "VEC3"
        },
        {
            "bufferView" : 38,
            "componentType" : 5126,
            "count" : 28,
            "type" : "VEC2"
        },
        {
            "bufferView" : 39,
            "componentType" : 5123,
            "count" : 36,
            "type" : "SCALAR"
        }
    ],
    "bufferViews" : [
        {
            "buffer" : 0,
            "byteLength" : 900,
            "byteOffset" : 0
        },
        {
            "buffer" : 0,
            "byteLength" : 900,
            "byteOffset" : 900
        },
        {
            "buffer" : 0,
            "byteLength" : 600,
            "byteOffset" : 1800
        },
        {
            "buffer" : 0,
            "byteLength" : 150,
            "byteOffset" : 2400
        },
        {
            "buffer" : 0,
            "byteLength" : 3552,
            "byteOffset" : 2552
        },
        {
            "buffer" : 0,
            "byteLength" : 3552,
            "byteOffset" : 6104
        },
        {
            "buffer" : 0,
            "byteLength" : 2368,
            "byteOffset" : 9656
        },
        {
            "buffer" : 0,
            "byteLength" : 672,
            "byteOffset" : 12024
        },
        {
            "buffer" : 0,
            "byteLength" : 5976,
            "byteOffset" : 12696
        },
        {
            "buffer" : 0,
            "byteLength" : 5976,
            "byteOffset" : 18672
        },
        {
            "buffer" : 0,
            "byteLength" : 3984,
            "byteOffset" : 24648
        },
        {
            "buffer" : 0,
            "byteLength" : 1236,
            "byteOffset" : 28632
        },
        {
            "buffer" : 0,
            "byteLength" : 684,
            "byteOffset" : 29868
        },
        {
            "buffer" : 0,
            "byteLength" : 684,
            "byteOffset" : 30552
        },
        {
            "buffer" : 0,
            "byteLength" : 456,
            "byteOffset" : 31236
        },
        {
            "buffer" : 0,
            "byteLength" : 150,
            "byteOffset" : 31692
        },
        {
            "buffer" : 0,
            "byteLength" : 101340,
            "byteOffset" : 31844
        },
        {
            "buffer" : 0,
            "byteLength" : 101340,
            "byteOffset" : 133184
        },
        {
            "buffer" : 0,
            "byteLength" : 67560,
            "byteOffset" : 234524
        },
        {
            "buffer" : 0,
            "byteLength" : 29856,
            "byteOffset" : 302084
        },
        {
            "buffer" : 0,
            "byteLength" : 35724,
            "byteOffset" : 331940
        },
        {
            "buffer" : 0,
            "byteLength" : 35724,
            "byteOffset" : 367664
        },
        {
            "buffer" : 0,
            "byteLength" : 23816,
            "byteOffset" : 403388
        },
        {
            "buffer" : 0,
            "byteLength" : 8490,
            "byteOffset" : 427204
        },
        {
            "buffer" : 0,
            "byteLength" : 94896,
            "byteOffset" : 435696
        },
        {
            "buffer" : 0,
            "byteLength" : 94896,
            "byteOffset" : 530592
        },
        {
            "buffer" : 0,
            "byteLength" : 63264,
            "byteOffset" : 625488
        },
        {
            "buffer" : 0,
            "byteLength" : 34290,
            "byteOffset" : 688752
        },
        {
            "buffer" : 0,
            "byteLength" : 2880,
            "byteOffset" : 723044
        },
        {
            "buffer" : 0,
            "byteLength" : 2880,
            "byteOffset" : 725924
        },
        {
            "buffer" : 0,
            "byteLength" : 1920,
            "byteOffset" : 728804
        },
        {
            "buffer" : 0,
            "byteLength" : 720,
            "byteOffset" : 730724
        },
        {
            "buffer" : 0,
            "byteLength" : 63528,
            "byteOffset" : 731444
        },
        {
            "buffer" : 0,
            "byteLength" : 63528,
            "byteOffset" : 794972
        },
        {
            "buffer" : 0,
            "byteLength" : 42352,
            "byteOffset" : 858500
        },
        {
            "buffer" : 0,
            "byteLength" : 19062,
            "byteOffset" : 900852
        },
        {
            "buffer" : 0,
            "byteLength" : 336,
            "byteOffset" : 919916
        },
        {
            "buffer" : 0,
            "byteLength" : 336,
            "byteOffset" : 920252
        },
        {
            "buffer" : 0,
            "byteLength" : 224,
            "byteOffset" : 920588
        },
        {
            "buffer" : 0,
            "byteLength" : 72,
            "byteOffset" : 920812
        }
    ],
    "buffers" : [
        {
            "byteLength" : 920884,
            "uri" : "data:application/octet-stream;base64,"
        }
    ]
}
